<svg id="Add_icon" data-name="Add icon" xmlns="http://www.w3.org/2000/svg" width="36" height="36" viewBox="0 0 36 36">
  <rect id="Rectangle_3108" data-name="Rectangle 3108" width="36" height="36" fill="none"/>
  <path id="Icon_ionic-ios-add-circle" data-name="Icon ionic-ios-add-circle" d="M15.875,3.375a12.5,12.5,0,1,0,12.5,12.5A12.5,12.5,0,0,0,15.875,3.375Zm5.439,13.462H16.837v4.477a.962.962,0,0,1-1.923,0V16.837H10.436a.962.962,0,1,1,0-1.923h4.477V10.436a.962.962,0,1,1,1.923,0v4.477h4.477a.962.962,0,1,1,0,1.923Z" transform="translate(2.426 1.625)" fill="#0a7ac7"/>
</svg>
